<svg width="150" height="25" viewBox="0 0 150 25" fill="none" xmlns="http://www.w3.org/2000/svg">
<path d="M16.5048 24H8.69675C6.03008 24 4.04608 23.4667 2.74475 22.4C1.46475 21.3333 0.82475 19.6907 0.82475 17.472V7.52C0.82475 5.30133 1.46475 3.65867 2.74475 2.592C4.04608 1.504 6.03008 0.959999 8.69675 0.959999H16.5048C16.9101 0.959999 17.1981 1.056 17.3688 1.248C17.5608 1.41867 17.6568 1.70667 17.6568 2.112V5.984C17.6568 6.38933 17.5608 6.688 17.3688 6.88C17.1981 7.05067 16.9101 7.136 16.5048 7.136H10.0728C9.41142 7.136 8.92075 7.27467 8.60075 7.552C8.28075 7.808 8.12075 8.20267 8.12075 8.736V16.352C8.12075 16.8853 8.28075 17.28 8.60075 17.536C8.92075 17.7707 9.41142 17.888 10.0728 17.888H16.5048C16.9101 17.888 17.1981 17.984 17.3688 18.176C17.5608 18.3467 17.6568 18.6347 17.6568 19.04V22.848C17.6568 23.2533 17.5608 23.552 17.3688 23.744C17.1981 23.9147 16.9101 24 16.5048 24ZM40.6343 17.952C40.6343 18.9333 40.4849 19.8293 40.1863 20.64C39.9089 21.4293 39.3969 22.112 38.6503 22.688C37.9249 23.2427 36.9116 23.68 35.6103 24C34.3303 24.32 32.6983 24.48 30.7143 24.48C28.7303 24.48 27.0876 24.32 25.7863 24C24.4849 23.68 23.4609 23.2427 22.7143 22.688C21.9889 22.112 21.4769 21.4293 21.1783 20.64C20.9009 19.8293 20.7623 18.9333 20.7623 17.952V7.04C20.7623 6.05867 20.9009 5.17333 21.1783 4.384C21.4769 3.57333 21.9889 2.88 22.7143 2.304C23.4609 1.728 24.4849 1.28 25.7863 0.959999C27.0876 0.639999 28.7303 0.48 30.7143 0.48C32.6983 0.48 34.3303 0.639999 35.6103 0.959999C36.9116 1.28 37.9249 1.728 38.6503 2.304C39.3969 2.88 39.9089 3.57333 40.1863 4.384C40.4849 5.17333 40.6343 6.05867 40.6343 7.04V17.952ZM28.0263 16.8C28.0263 17.2267 28.1863 17.5893 28.5063 17.888C28.8263 18.1653 29.5623 18.304 30.7143 18.304C31.8663 18.304 32.6023 18.1653 32.9223 17.888C33.2423 17.5893 33.4023 17.2267 33.4023 16.8V8.192C33.4023 7.78667 33.2423 7.44533 32.9223 7.168C32.6023 6.86933 31.8663 6.72 30.7143 6.72C29.5623 6.72 28.8263 6.86933 28.5063 7.168C28.1863 7.44533 28.0263 7.78667 28.0263 8.192V16.8ZM62.148 24H45.86C45.4547 24 45.156 23.9147 44.964 23.744C44.7933 23.552 44.708 23.2533 44.708 22.848V2.112C44.708 1.70667 44.7933 1.41867 44.964 1.248C45.156 1.056 45.4547 0.959999 45.86 0.959999H50.82C51.2253 0.959999 51.5133 1.056 51.684 1.248C51.876 1.41867 51.972 1.70667 51.972 2.112V17.952H56.356V12.768C56.356 12.3627 56.4413 12.0747 56.612 11.904C56.804 11.712 57.1027 11.616 57.508 11.616H62.148C62.5533 11.616 62.8413 11.712 63.012 11.904C63.204 12.0747 63.3 12.3627 63.3 12.768V22.848C63.3 23.2533 63.204 23.552 63.012 23.744C62.8413 23.9147 62.5533 24 62.148 24ZM84.398 24H68.11C67.7047 24 67.406 23.9147 67.214 23.744C67.0433 23.552 66.958 23.2533 66.958 22.848V2.112C66.958 1.70667 67.0433 1.41867 67.214 1.248C67.406 1.056 67.7047 0.959999 68.11 0.959999H73.07C73.4753 0.959999 73.7633 1.056 73.934 1.248C74.126 1.41867 74.222 1.70667 74.222 2.112V17.952H78.606V12.768C78.606 12.3627 78.6913 12.0747 78.862 11.904C79.054 11.712 79.3527 11.616 79.758 11.616H84.398C84.8033 11.616 85.0913 11.712 85.262 11.904C85.454 12.0747 85.55 12.3627 85.55 12.768V22.848C85.55 23.2533 85.454 23.552 85.262 23.744C85.0913 23.9147 84.8033 24 84.398 24ZM97.56 7.68L96.056 12.544H101.08L99.576 7.68C99.4907 7.488 99.3947 7.34933 99.288 7.264C99.2027 7.17867 99.096 7.136 98.968 7.136H98.168C98.04 7.136 97.9227 7.17867 97.816 7.264C97.7307 7.34933 97.6453 7.488 97.56 7.68ZM95.736 22.848C95.736 23.2533 95.64 23.552 95.448 23.744C95.2773 23.9147 94.9893 24 94.584 24H89.88C89.4747 24 89.176 23.9147 88.984 23.744C88.8133 23.552 88.728 23.2533 88.728 22.848V14.4C88.728 13.76 88.824 13.024 89.016 12.192C89.2293 11.36 89.5493 10.3893 89.976 9.28L92.76 2.016C92.888 1.65333 93.08 1.38667 93.336 1.216C93.6133 1.04533 93.9653 0.959999 94.392 0.959999H103C103.405 0.959999 103.736 1.04533 103.992 1.216C104.269 1.38667 104.472 1.65333 104.6 2.016L107.384 9.28C107.811 10.3893 108.12 11.36 108.312 12.192C108.525 13.024 108.632 13.76 108.632 14.4V22.848C108.632 23.2533 108.536 23.552 108.344 23.744C108.173 23.9147 107.885 24 107.48 24H102.648C102.221 24 101.901 23.9147 101.688 23.744C101.496 23.552 101.4 23.2533 101.4 22.848V18.368H95.736V22.848ZM122.182 24H116.998C116.592 24 116.294 23.9147 116.102 23.744C115.931 23.552 115.846 23.2533 115.846 22.848V7.136H111.142C110.736 7.136 110.438 7.05067 110.246 6.88C110.075 6.688 109.99 6.38933 109.99 5.984V2.112C109.99 1.70667 110.075 1.41867 110.246 1.248C110.438 1.056 110.736 0.959999 111.142 0.959999H128.038C128.443 0.959999 128.731 1.056 128.902 1.248C129.094 1.41867 129.19 1.70667 129.19 2.112V5.984C129.19 6.38933 129.094 6.688 128.902 6.88C128.731 7.05067 128.443 7.136 128.038 7.136H123.334V22.848C123.334 23.2533 123.238 23.552 123.046 23.744C122.875 23.9147 122.587 24 122.182 24ZM148.302 24H133.454C133.048 24 132.75 23.9147 132.558 23.744C132.387 23.552 132.302 23.2533 132.302 22.848V2.112C132.302 1.70667 132.387 1.41867 132.558 1.248C132.75 1.056 133.048 0.959999 133.454 0.959999H148.302C148.707 0.959999 148.995 1.056 149.166 1.248C149.358 1.41867 149.454 1.70667 149.454 2.112V5.856C149.454 6.26133 149.358 6.56 149.166 6.752C148.995 6.92267 148.707 7.008 148.302 7.008H139.47V9.472H145.71C146.115 9.472 146.403 9.568 146.574 9.76C146.766 9.93067 146.862 10.2187 146.862 10.624V14.048C146.862 14.4533 146.766 14.752 146.574 14.944C146.403 15.1147 146.115 15.2 145.71 15.2H139.47V17.952H148.302C148.707 17.952 148.995 18.048 149.166 18.24C149.358 18.4107 149.454 18.6987 149.454 19.104V22.848C149.454 23.2533 149.358 23.552 149.166 23.744C148.995 23.9147 148.707 24 148.302 24Z" fill="black"/>
</svg>
